<?xml version="1.0" encoding="UTF-8" standalone="no"?>
<!DOCTYPE svg PUBLIC "-//W3C//DTD SVG 1.1//EN" "http://www.w3.org/Graphics/SVG/1.1/DTD/svg11.dtd">
<svg width="100%" height="100%" viewBox="0 0 64 64" version="1.1" xmlns="http://www.w3.org/2000/svg" xmlns:xlink="http://www.w3.org/1999/xlink" xml:space="preserve" xmlns:serif="http://www.serif.com/" style="fill-rule:evenodd;clip-rule:evenodd;stroke-linejoin:round;stroke-miterlimit:2;">
    <rect x="0" y="0" width="64" height="64" style="fill:rgb(253,137,0);"/>
    <g transform="matrix(1.88601,0,0,1.88601,32,32)">
        <g transform="matrix(1,0,0,1,-12,-12)">
            <clipPath id="_clip1">
                <rect x="0" y="0" width="24" height="24"/>
            </clipPath>
            <g clip-path="url(#_clip1)">
                <rect x="0" y="0" width="24" height="24" style="fill:none;fill-rule:nonzero;"/>
                <path d="M12,2C6.48,2 2,6.48 2,12C2,17.52 6.48,22 12,22C17.52,22 22,17.52 22,12C22,6.48 17.52,2 12,2ZM11,19.93C7.05,19.44 4,16.08 4,12C4,11.38 4.08,10.79 4.21,10.21L9,15L9,16C9,17.1 9.9,18 11,18L11,19.93ZM17.9,17.39C17.64,16.58 16.9,16 16,16L15,16L15,13C15,12.45 14.55,12 14,12L8,12L8,10L10,10C10.55,10 11,9.55 11,9L11,7L13,7C14.1,7 15,6.1 15,5L15,4.59C17.93,5.78 20,8.65 20,12C20,14.08 19.2,15.97 17.9,17.39Z" style="fill:white;fill-rule:nonzero;"/>
            </g>
        </g>
    </g>
</svg>
